<?xml version="1.0" encoding="UTF-8"?>
<svg width="700pt" height="700pt" version="1.1" viewBox="0 0 700 700" xmlns="http://www.w3.org/2000/svg">
 <g>
  <path d="m513.33 70h-326.66c-12.379 0-24.246 4.918-33 13.668-8.75 8.7539-13.668 20.621-13.668 33v93.332c0 12.375 4.918 24.246 13.668 33 8.7539 8.75 20.621 13.668 33 13.668h326.66c12.379 0 24.246-4.918 33-13.668 8.75-8.7539 13.668-20.625 13.668-33v-93.332c0-12.379-4.918-24.246-13.668-33-8.7539-8.75-20.621-13.668-33-13.668zm-326.66 140v-93.332h326.66v93.332z"/>
  <path d="m326.67 280h-140c-12.379 0-24.246 4.918-33 13.668-8.75 8.7539-13.668 20.621-13.668 33v116.67-0.003907c0 12.379 4.918 24.246 13.668 33 8.7539 8.75 20.621 13.668 33 13.668h140c12.375 0 24.246-4.918 32.996-13.668 8.7539-8.7539 13.668-20.621 13.668-33v-116.66c0-12.379-4.9141-24.246-13.668-33-8.75-8.75-20.621-13.668-32.996-13.668zm-140 163.33v-116.66h140v116.67z"/>
  <path d="m513.33 280h-70c-12.375 0-24.246 4.918-32.996 13.668-8.7539 8.7539-13.668 20.621-13.668 33v116.67-0.003907c0 12.379 4.9141 24.246 13.668 33 8.75 8.75 20.621 13.668 32.996 13.668h70c12.379 0 24.246-4.918 33-13.668 8.75-8.7539 13.668-20.621 13.668-33v-116.66c0-12.379-4.918-24.246-13.668-33-8.7539-8.75-20.621-13.668-33-13.668zm-70 163.33v-116.66h70v116.67z"/>
 </g>
</svg>
